<?xml version="1.0" encoding="utf-8"?>
<!-- Generator: Adobe Illustrator 24.0.1, SVG Export Plug-In . SVG Version: 6.00 Build 0)  -->
<svg version="1.1" id="Layer_1" xmlns="http://www.w3.org/2000/svg" xmlns:xlink="http://www.w3.org/1999/xlink" x="0px" y="0px"
	 viewBox="0 0 512 512" style="enable-background:new 0 0 512 512;" xml:space="preserve">
<style type="text/css">
	.st0{fill:#FF0000;}
</style>
<g>
	<circle class="st0" cx="170.4" cy="387.1" r="40.2"/>
	<circle class="st0" cx="341.7" cy="387.1" r="40.2"/>
	<path class="st0" d="M395.6,139H108.3l-3-11.3c-6.8-25.3-29.9-43-56.1-43H26.5c-8.1,0-15,6.2-15.4,14.3c-0.4,8.6,6.5,15.7,15,15.7
		h23.1c12.7,0,23.8,8.6,27.1,20.8l46.9,174.4c3.5,13.1,15.4,22.2,29,22.2l207.7,0c13.6,0,25.5-9.1,29-22.2l35.8-133.1
		C429.7,157.8,415.4,139,395.6,139z M307.6,265.8c5.9,5.9,5.9,15.5,0,21.4c-3,3-6.8,4.4-10.7,4.4c-3.9,0-7.7-1.5-10.7-4.4L256,257
		l-30.2,30.2c-5.9,5.9-15.5,5.9-21.4,0c-2.9-3-4.4-6.8-4.4-10.7c0-3.9,1.5-7.7,4.4-10.7l30.2-30.2l-30.2-30.2
		c-5.9-5.9-5.9-15.5,0-21.4c3-2.9,6.8-4.4,10.7-4.4c3.9,0,7.7,1.5,10.7,4.4l30.2,30.2l30.2-30.2c5.9-5.9,15.5-5.9,21.4,0
		c3,3,4.4,6.8,4.4,10.7c0,3.9-1.5,7.7-4.4,10.7l-30.2,30.2L307.6,265.8z"/>
</g>
</svg>
